/* XPM */
static char * min_xpm[] = {
"13 15 3 1",
" 	c None",
".	c #F7F7F7",
"+	c #919191",
".............",
".............",
"+++++++++++++",
"+++++++++++++",
"+++++++++++++",
"+++++++++++++",
"+++++++++++++",
"+++++++++++++",
"+++++++++++++",
"+++++++++++++",
"+++++++++++++",
"+++++++++++++",
"+++++++++++++",
".............",
"............."};
