/* XPM */
static char * close_xpm[] = {
"16 15 3 1",
" 	c None",
".	c #0A0A0A",
"+	c #CECECE",
"................",
"................",
"+++++++++++++++.",
"+++++++++++++++.",
"+++++++++++++++.",
"+++++++++++++++.",
"+++++++++++++++.",
"+++++++++++++++.",
"+++++++++++++++.",
"+++++++++++++++.",
"+++++++++++++++.",
"+++++++++++++++.",
"+++++++++++++++.",
"................",
"................"};
