/* XPM */
static char * max_xpm[] = {
"13 15 3 1",
" 	c None",
".	c #0A0A0A",
"+	c #929292",
".............",
".............",
"+++++++++++++",
"+++++++++++++",
"+++++++++++++",
"+++++++++++++",
"+++++++++++++",
"+++++++++++++",
"+++++++++++++",
"+++++++++++++",
"+++++++++++++",
"+++++++++++++",
"+++++++++++++",
".............",
"............."};
