/* XPM */
static char * close_xpm[] = {
"16 15 3 1",
" 	c None",
".	c #000000",
"+	c #7A0000",
"................",
"................",
"+++++++++++++++.",
"+++++++++++++++.",
"+++++++++++++++.",
"+++++++++++++++.",
"+++++++++++++++.",
"+++++++++++++++.",
"+++++++++++++++.",
"+++++++++++++++.",
"+++++++++++++++.",
"+++++++++++++++.",
"+++++++++++++++.",
"................",
"................"};
