/* XPM */
static char * min_xpm[] = {
"13 15 3 1",
" 	c None",
".	c #000000",
"+	c #6E6E6E",
".............",
".............",
"+++++++++++++",
"+++++++++++++",
"+++++++++++++",
"+++++++++++++",
"+++++++++++++",
"+++++++++++++",
"+++++++++++++",
"+++++++++++++",
"+++++++++++++",
"+++++++++++++",
"+++++++++++++",
".............",
"............."};
