/* XPM */
static char * stuck_xpm[] = {
"16 15 59 1",
" 	c None",
".	c #000000",
"+	c #3D1B22",
"@	c #912129",
"#	c #6F1F27",
"$	c #5A1E26",
"%	c #321A21",
"&	c #0F1119",
"*	c #CB1921",
"=	c #FF1F2A",
"-	c #A72329",
";	c #7A2028",
">	c #9D232B",
",	c #FF1722",
"'	c #AC242A",
")	c #A7232D",
"!	c #F7010D",
"~	c #201820",
"{	c #9C222B",
"]	c #3C1A21",
"^	c #B82027",
"/	c #18141C",
"(	c #341A21",
"_	c #281A21",
":	c #661E27",
"<	c #1A151D",
"[	c #D1151E",
"}	c #4C1C23",
"|	c #501C25",
"1	c #481C24",
"2	c #2F1922",
"3	c #291920",
"4	c #FF0D18",
"5	c #FF0D13",
"6	c #16131B",
"7	c #631D24",
"8	c #22181F",
"9	c #782028",
"0	c #15131B",
"a	c #421C23",
"b	c #6F1F26",
"c	c #FF0B16",
"d	c #842027",
"e	c #1B161E",
"f	c #96222A",
"g	c #111219",
"h	c #AF232D",
"i	c #481C23",
"j	c #94222A",
"k	c #852128",
"l	c #8F2129",
"m	c #121119",
"n	c #2C1A21",
"o	c #D0161F",
"p	c #14121A",
"q	c #B1232D",
"r	c #231920",
"s	c #E00E18",
"t	c #351B23",
"................",
"................",
"......+@#$%&....",
".....*=-;>,'....",
"....)!%...~,{...",
"...]^/..(_.:-<..",
"...[}..|12&34...",
"...5/.67..8~,...",
"...4..<9.60ab...",
"...c6.0de.0fg...",
"...hi..3jklm....",
"...no...pm......",
"....q3..........",
"....rs8.........",
"......@t0......."};
